# Blender v2.82 (sub 7) OBJ File: 'item_model.blend'
# www.blender.org
mtllib fluid_pouch.mtl
o cube
v -1.357658 0.259043 -0.163971
v -0.513594 1.452731 0.680094
v -0.163971 0.259043 -1.357658
v 0.680094 1.452731 -0.513594
v -1.358111 0.259684 -0.164424
v -0.514047 1.453372 0.679641
v -0.164424 0.259684 -1.358112
v 0.679640 1.453372 -0.514047
vt 0.000100 -0.000100
vt 0.999900 1.000100
vt 0.999900 -0.000100
vt 0.999900 0.999900
vt 0.000100 0.000100
vt 0.999900 0.000100
vt 0.000100 1.000100
vt 0.000100 0.999900
vn 0.5000 -0.7071 0.5000
vn -0.5000 0.7071 -0.5000
usemtl m_0
s off
f 3/1/1 2/2/1 1/3/1
f 6/4/2 7/5/2 5/6/2
f 3/1/1 4/7/1 2/2/1
f 6/4/2 8/8/2 7/5/2
